<?xml version="1.0" encoding="UTF-8" standalone="no"?>
<svg
   xmlns:dc="http://purl.org/dc/elements/1.1/"
   xmlns:cc="http://creativecommons.org/ns#"
   xmlns:rdf="http://www.w3.org/1999/02/22-rdf-syntax-ns#"
   xmlns:svg="http://www.w3.org/2000/svg"
   xmlns="http://www.w3.org/2000/svg"
   xmlns:sodipodi="http://sodipodi.sourceforge.net/DTD/sodipodi-0.dtd"
   xmlns:inkscape="http://www.inkscape.org/namespaces/inkscape"
   width="32px"
   height="32px"
   viewBox="0 0 32 32"
   id="icon"
   version="1.1"
   sodipodi:docname="reflect_v.svg"
   inkscape:version="0.92.4 (5da689c313, 2019-01-14)">
  <metadata
     id="metadata63">
    <rdf:RDF>
      <cc:Work
         rdf:about="">
        <dc:format>image/svg+xml</dc:format>
        <dc:type
           rdf:resource="http://purl.org/dc/dcmitype/StillImage" />
      </cc:Work>
    </rdf:RDF>
  </metadata>
  <sodipodi:namedview
     pagecolor="#ffffff"
     bordercolor="#666666"
     borderopacity="1"
     objecttolerance="10"
     gridtolerance="10"
     guidetolerance="10"
     inkscape:pageopacity="0"
     inkscape:pageshadow="2"
     inkscape:window-width="1366"
     inkscape:window-height="705"
     id="namedview61"
     showgrid="false"
     inkscape:zoom="7.375"
     inkscape:cx="16"
     inkscape:cy="16"
     inkscape:window-x="-8"
     inkscape:window-y="-8"
     inkscape:window-maximized="1"
     inkscape:current-layer="icon" />
  <defs
     id="defs51">
    <style
       id="style49">
      .cls-1 {
        fill: #272425;
      }

      .cls-2 {
        fill: none;
      }
    </style>
  </defs>
  <path
     style="fill:#272425"
     inkscape:connector-curvature="0"
     class="cls-1"
     d="m 16.7895,19.386 7,9 A 1,1 0 0 1 23,30 H 9 A 1,1 0 0 1 8.21,28.386 l 7,-9 a 1,1 0 0 1 1.5791,0 z"
     id="path53" />
  <rect
     style="fill:#272425"
     class="cls-1"
     x="-17"
     y="2"
     width="2"
     height="28"
     transform="rotate(-90)"
     id="rect55" />
  <path
     style="fill:#272425"
     inkscape:connector-curvature="0"
     class="cls-1"
     d="m 16,13 a 1.001,1.001 0 0 1 -0.79,-0.386 l -7,-9 A 1,1 0 0 1 9,2 l 14,0 a 1,1 0 0 1 0.79,1.614 l -7,9 A 1.001,1.001 0 0 1 16,13 Z M 11.0444,4 16,10.3711 20.9556,4 Z"
     id="path57" />
  <rect
     style="fill:none"
     y="-32"
     x="1.9593702e-15"
     id="_Transparent_Rectangle_"
     data-name="&lt;Transparent Rectangle&gt;"
     class="cls-2"
     width="32"
     height="32"
     transform="rotate(90)" />
</svg>
